<?xml version="1.0" encoding="UTF-8"?>
<svg version="1.1" xmlns="http://www.w3.org/2000/svg" width="1569" height="1790" viewBox="0 0 1569 1790">
<path d="M0 0 C510.51 0 1021.02 0 1547 0 C1547 518.43224917 1547 518.43224917 1543.1875 574.375 C1543.10318726 575.63186615 1543.01887451 576.8887323 1542.93200684 578.1836853 C1536.00223719 680.80316788 1521.2940407 783.02374643 1497 883 C1496.76559204 883.96578979 1496.53118408 884.93157959 1496.28967285 885.92663574 C1474.27312467 976.38895714 1444.86603672 1065.32898166 1406 1150 C1405.50258301 1151.08958008 1405.00516602 1152.17916016 1404.49267578 1153.30175781 C1393.04588766 1178.34273276 1381.39453842 1203.41781025 1368.27783203 1227.63574219 C1366.8400768 1230.29589152 1365.41816413 1232.96424704 1363.99609375 1235.6328125 C1356.86851287 1248.95753453 1349.41552371 1262.06413443 1341.72753906 1275.07275391 C1340.02696523 1277.95430849 1338.3364835 1280.84156089 1336.6484375 1283.73046875 C1330.16822071 1294.79735123 1323.49432066 1305.71552887 1316.58300781 1316.51806641 C1314.88720867 1319.17684094 1313.20443551 1321.84356372 1311.5234375 1324.51171875 C1305.03628443 1334.79227467 1298.43793925 1344.96162499 1291.45996094 1354.91601562 C1289.85580774 1357.2058236 1288.2597671 1359.5011722 1286.6640625 1361.796875 C1275.27743903 1378.15335945 1263.668498 1394.30435528 1251.48291016 1410.07617188 C1250.12125376 1411.84269351 1248.76763852 1413.61493774 1247.41796875 1415.390625 C1242.3632546 1422.02136472 1237.1742265 1428.52228601 1231.89550781 1434.9753418 C1228.28458458 1439.39537143 1224.74918275 1443.86623524 1221.25 1448.375 C1217.41335897 1453.30536901 1213.39686455 1457.9905977 1209.1640625 1462.58984375 C1206.93120866 1465.07661419 1204.83855098 1467.64120996 1202.75 1470.25 C1198.08759227 1476.01666219 1193.05931794 1481.39306777 1187.98828125 1486.796875 C1185.79539746 1489.13613092 1183.65168627 1491.50452359 1181.5625 1493.9375 C1176.51899015 1499.77214865 1171.18399996 1505.3455364 1165.90478516 1510.96582031 C1164.07884946 1512.91579419 1162.2628233 1514.87449837 1160.44921875 1516.8359375 C1151.98681837 1525.95356459 1143.28580803 1534.82055578 1134.5 1543.625 C1133.93937866 1544.18820953 1133.37875732 1544.75141907 1132.80114746 1545.33169556 C1127.22369463 1550.9294869 1121.63624012 1556.45959741 1115.62304688 1561.59521484 C1113.47023198 1563.45852665 1111.48183014 1565.45719047 1109.5 1567.5 C1106.21145472 1570.82769463 1102.83618376 1573.95336441 1099.28515625 1576.99609375 C1096.93521916 1579.05680781 1094.64966874 1581.17474187 1092.36572266 1583.30786133 C1086.96074678 1588.35507403 1081.44939205 1593.15657508 1075.6796875 1597.7890625 C1072.86746685 1600.1093495 1070.18202737 1602.53071134 1067.5 1605 C1062.17025607 1609.89374231 1056.63229749 1614.46107316 1051 1619 C1049.78172437 1619.99768805 1048.56432693 1620.99644911 1047.34765625 1621.99609375 C1038.3594775 1629.36738705 1029.2103817 1636.49540294 1019.94726562 1643.51708984 C1018.18088024 1644.86225344 1016.42377361 1646.21808345 1014.671875 1647.58203125 C1005.61645723 1654.62386994 996.34468164 1661.34852766 987 1668 C986.41190552 1668.41947906 985.82381104 1668.83895813 985.21789551 1669.27114868 C974.35157763 1677.01464429 963.36024396 1684.54874362 952.25 1691.9375 C951.46663269 1692.45913727 950.68326538 1692.98077454 949.87615967 1693.51821899 C937.73386784 1701.59729364 925.51816023 1709.5124076 913 1717 C912.14438477 1717.51498047 911.28876953 1718.02996094 910.40722656 1718.56054688 C886.43652733 1732.9691639 861.98393138 1746.43763137 837 1759 C836.39760498 1759.30290955 835.79520996 1759.60581909 835.17456055 1759.91790771 C821.06302404 1766.9978493 806.80092533 1773.68519191 792.25 1779.8125 C791.05439453 1780.32256592 789.85878906 1780.83263184 788.62695312 1781.3581543 C776.49434707 1786.35948028 769.9389315 1786.68220381 757.625 1782 C756.41674561 1781.55285645 755.20849121 1781.10571289 753.96362305 1780.64501953 C726.5954884 1770.40886215 700.09971711 1758.09599064 674 1745 C673.32950623 1744.66421936 672.65901245 1744.32843872 671.96820068 1743.98248291 C654.82373779 1735.3888923 638.02610654 1726.38295558 621.56445312 1716.52832031 C619.2246203 1715.13386549 616.87445147 1713.76044216 614.515625 1712.3984375 C574.85779384 1689.47291358 537.06365392 1662.90931197 501.06640625 1634.62109375 C499.12178524 1633.09554041 497.17149546 1631.57763232 495.21875 1630.0625 C488.37170788 1624.73816387 481.6877553 1619.25927175 475.09375 1613.625 C472.2044868 1611.16084036 469.26481542 1608.76339 466.3125 1606.375 C461.86096192 1602.75165505 457.57617545 1598.98036128 453.33203125 1595.1171875 C451.24176111 1593.21948831 449.13013885 1591.35266585 447 1589.5 C442.28405085 1585.38769234 437.63583524 1581.20226791 433 1577 C432.50387207 1576.55043945 432.00774414 1576.10087891 431.49658203 1575.63769531 C426.12691106 1570.7653722 420.80197898 1565.87773479 415.72753906 1560.69506836 C414.08953477 1559.08785188 412.39887934 1557.61489474 410.64453125 1556.13671875 C404.91719135 1551.15271166 399.60169295 1545.75099873 394.24536133 1540.37573242 C392.44137915 1538.56639067 390.63211335 1536.76245681 388.82226562 1534.95898438 C383.49931832 1529.63878468 378.25061337 1524.31871686 373.36743164 1518.58569336 C371.5195073 1516.44281376 369.5301054 1514.46950524 367.5 1512.5 C364.15066271 1509.19013302 361.00074044 1505.79253051 357.9375 1502.21875 C356.01404807 1500.0160873 354.03910099 1497.86703514 352.05004883 1495.72363281 C347.23680456 1490.53519133 342.67600849 1485.22072548 338.23828125 1479.703125 C335.95184295 1476.94184175 333.56391782 1474.31461778 331.125 1471.6875 C326.88202961 1467.07728643 323.00123337 1462.28073042 319.17407227 1457.32836914 C316.07489557 1453.32958918 312.86627176 1449.45571743 309.5625 1445.625 C304.53186352 1439.75830097 299.89786227 1433.64291425 295.30078125 1427.43359375 C292.26740758 1423.3398856 289.17067313 1419.29700157 286.06713867 1415.25634766 C279.03751901 1406.09550871 272.20775794 1396.83419251 265.62939453 1387.34472656 C263.79164347 1384.7001714 261.94106784 1382.06482776 260.08984375 1379.4296875 C252.65988278 1368.83342008 245.36672447 1358.17919463 238.43212891 1347.25195312 C236.84179561 1344.75123128 235.23961297 1342.25831306 233.63671875 1339.765625 C225.85860787 1327.64432497 218.32074734 1315.4023692 211 1303 C210.44844238 1302.06961914 209.89688477 1301.13923828 209.32861328 1300.18066406 C201.07740911 1286.24788319 193.19729758 1272.15251872 185.55273438 1257.87890625 C184.06882584 1255.12760916 182.5634172 1252.38967052 181.046875 1249.65625 C167.89866899 1225.93188297 156.02551964 1201.55769889 144.83929443 1176.85247803 C143.9842882 1174.96532116 143.12624607 1173.07956323 142.26806641 1171.19384766 C127.16975963 1137.95172894 113.52926256 1104.01645527 101.29199219 1069.61865234 C100.17801217 1066.49858209 99.04944776 1063.38455829 97.91377258 1060.27236938 C83.1842036 1019.85169172 70.96920837 978.58544538 60 937 C59.61938416 935.55744843 59.61938416 935.55744843 59.2310791 934.08575439 C31.33789035 828.03690973 14.28531563 719.09396645 0 0 Z " fill="#4FAD3C" transform="translate(11,4)"/>
<path d="M0 0 C0.33 0 0.66 0 1 0 C1.04600919 46.92168971 1.08113577 93.84337698 1.10213066 140.76508489 C1.10463138 146.33362434 1.1072201 151.90216374 1.10986328 157.47070312 C1.11065021 159.13325065 1.11065021 159.13325065 1.11145304 160.829385 C1.12010118 178.65939305 1.13583949 196.48938791 1.15430559 214.3193882 C1.17316176 232.68233033 1.18414949 251.04526566 1.18817699 269.40821707 C1.19064951 279.69383255 1.1965333 289.97942051 1.21146011 300.26502609 C1.32817851 383.13043122 1.32817851 383.13043122 -0.87257743 422.70702517 C-1.00129568 425.02331591 -1.12567831 427.33980565 -1.2489872 429.65639019 C-1.70812252 438.23386779 -2.22846108 446.80510006 -2.8125 455.375 C-2.89681274 456.63186615 -2.98112549 457.8887323 -3.06799316 459.1836853 C-9.99776281 561.80316788 -24.7059593 664.02374643 -49 764 C-49.23440796 764.96578979 -49.46881592 765.93157959 -49.71032715 766.92663574 C-71.72687533 857.38895714 -101.13396328 946.32898166 -140 1031 C-140.49741699 1032.08958008 -140.99483398 1033.17916016 -141.50732422 1034.30175781 C-152.95411234 1059.34273276 -164.60546158 1084.41781025 -177.72216797 1108.63574219 C-179.1599232 1111.29589152 -180.58183587 1113.96424704 -182.00390625 1116.6328125 C-189.13148713 1129.95753453 -196.58447629 1143.06413443 -204.27246094 1156.07275391 C-205.97303477 1158.95430849 -207.6635165 1161.84156089 -209.3515625 1164.73046875 C-215.83177929 1175.79735123 -222.50567934 1186.71552887 -229.41699219 1197.51806641 C-231.11279133 1200.17684094 -232.79556449 1202.84356372 -234.4765625 1205.51171875 C-240.96371557 1215.79227467 -247.56206075 1225.96162499 -254.54003906 1235.91601562 C-256.14419226 1238.2058236 -257.7402329 1240.5011722 -259.3359375 1242.796875 C-270.72256097 1259.15335945 -282.331502 1275.30435528 -294.51708984 1291.07617188 C-295.87874624 1292.84269351 -297.23236148 1294.61493774 -298.58203125 1296.390625 C-303.6367454 1303.02136472 -308.8257735 1309.52228601 -314.10449219 1315.9753418 C-317.71541542 1320.39537143 -321.25081725 1324.86623524 -324.75 1329.375 C-328.58664103 1334.30536901 -332.60313545 1338.9905977 -336.8359375 1343.58984375 C-339.06879134 1346.07661419 -341.16144902 1348.64120996 -343.25 1351.25 C-347.91240773 1357.01666219 -352.94068206 1362.39306777 -358.01171875 1367.796875 C-360.20460254 1370.13613092 -362.34831373 1372.50452359 -364.4375 1374.9375 C-369.48100985 1380.77214865 -374.81600004 1386.3455364 -380.09521484 1391.96582031 C-381.92115054 1393.91579419 -383.7371767 1395.87449837 -385.55078125 1397.8359375 C-394.01318163 1406.95356459 -402.71419197 1415.82055578 -411.5 1424.625 C-412.06062134 1425.18820953 -412.62124268 1425.75141907 -413.19885254 1426.33169556 C-418.77630537 1431.9294869 -424.36375988 1437.45959741 -430.37695312 1442.59521484 C-432.52976802 1444.45852665 -434.51816986 1446.45719047 -436.5 1448.5 C-439.78854528 1451.82769463 -443.16381624 1454.95336441 -446.71484375 1457.99609375 C-449.06478084 1460.05680781 -451.35033126 1462.17474187 -453.63427734 1464.30786133 C-459.03925322 1469.35507403 -464.55060795 1474.15657508 -470.3203125 1478.7890625 C-473.13253315 1481.1093495 -475.81797263 1483.53071134 -478.5 1486 C-483.82974393 1490.89374231 -489.36770251 1495.46107316 -495 1500 C-496.21827563 1500.99768805 -497.43567307 1501.99644911 -498.65234375 1502.99609375 C-507.6405225 1510.36738705 -516.7896183 1517.49540294 -526.05273438 1524.51708984 C-527.81911976 1525.86225344 -529.57622639 1527.21808345 -531.328125 1528.58203125 C-540.38354277 1535.62386994 -549.65531836 1542.34852766 -559 1549 C-559.58809448 1549.41947906 -560.17618896 1549.83895813 -560.78210449 1550.27114868 C-571.64842237 1558.01464429 -582.63975604 1565.54874362 -593.75 1572.9375 C-594.53336731 1573.45913727 -595.31673462 1573.98077454 -596.12384033 1574.51821899 C-608.26613216 1582.59729364 -620.48183977 1590.5124076 -633 1598 C-633.85561523 1598.51498047 -634.71123047 1599.02996094 -635.59277344 1599.56054688 C-659.56347267 1613.9691639 -684.01606862 1627.43763137 -709 1640 C-709.60239502 1640.30290955 -710.20479004 1640.60581909 -710.82543945 1640.91790771 C-724.93697596 1647.9978493 -739.19907467 1654.68519191 -753.75 1660.8125 C-754.94560547 1661.32256592 -756.14121094 1661.83263184 -757.37304688 1662.3581543 C-769.50565293 1667.35948028 -776.0610685 1667.68220381 -788.375 1663 C-789.58325439 1662.55285645 -790.79150879 1662.10571289 -792.03637695 1661.64501953 C-819.4045116 1651.40886215 -845.90028289 1639.09599064 -872 1626 C-872.67049377 1625.66421936 -873.34098755 1625.32843872 -874.03179932 1624.98248291 C-891.1491486 1616.40248288 -907.9241593 1607.41392066 -924.36083984 1597.57666016 C-928.45526373 1595.13061118 -932.57273522 1592.72410684 -936.6875 1590.3125 C-939.12697897 1588.87829764 -941.56399094 1587.44010292 -944 1586 C-944.88167837 1585.6242846 -945.76335674 1585.24856921 -946.67175263 1584.86146849 C-949 1583 -949 1583 -949.62099248 1579.58810264 C-949.6447875 1578.13500292 -949.64060023 1576.68129607 -949.61523914 1575.22822285 C-949.62100836 1574.42447219 -949.62677759 1573.62072153 -949.63272163 1572.79261479 C-949.64604757 1570.07602083 -949.6234534 1567.36088317 -949.60127258 1564.6443634 C-949.60345124 1562.68661532 -949.60782597 1560.72886865 -949.61421841 1558.77112979 C-949.62544169 1553.37337676 -949.60533976 1547.97611623 -949.58032811 1542.578426 C-949.55880396 1536.76451823 -949.56603783 1530.95063988 -949.56983948 1525.13670349 C-949.57246557 1515.05771579 -949.55673292 1504.9788895 -949.52865028 1494.8999424 C-949.48807357 1480.32737354 -949.47498232 1465.75487948 -949.46871033 1451.1822606 C-949.45820288 1427.54114096 -949.42450113 1403.90010544 -949.37719727 1380.2590332 C-949.3312897 1357.2893112 -949.2958645 1334.31961219 -949.2746582 1311.34985352 C-949.27400057 1310.64206559 -949.27334294 1309.93427767 -949.27266538 1309.20504163 C-949.26607289 1302.09726909 -949.25969381 1294.98949638 -949.25347109 1287.88172351 C-949.24078936 1273.40183524 -949.2266831 1258.92194846 -949.2117157 1244.44206238 C-949.21102925 1243.7762725 -949.2103428 1243.11048262 -949.20963555 1242.42451729 C-949.16361727 1197.94964306 -949.08428568 1153.47481607 -949 1109 C-948.35809906 1108.99864347 -947.71619812 1108.99728694 -947.05484563 1108.99588931 C-908.84083786 1108.91488722 -870.62686616 1108.8237925 -832.4129134 1108.71994839 C-827.80400301 1108.70743251 -823.1950924 1108.69499927 -818.58618164 1108.68261719 C-817.66879655 1108.68015119 -816.75141145 1108.6776852 -815.80622681 1108.67514448 C-801.03581983 1108.63563677 -786.2654054 1108.60279326 -771.49497698 1108.57250018 C-756.29045944 1108.54116517 -741.08597292 1108.5024656 -725.88149041 1108.45720994 C-717.36191242 1108.43205553 -708.84235334 1108.41012876 -700.32274818 1108.39665604 C-639.80445179 1108.43559808 -639.80445179 1108.43559808 -579.5 1103.75 C-578.59172455 1103.64495148 -577.6834491 1103.53990295 -576.74765015 1103.43167114 C-561.57016824 1101.66386328 -546.71929144 1099.16694634 -531.83691406 1095.66259766 C-529.33177978 1095.07749142 -526.82365383 1094.53324501 -524.3046875 1094.01171875 C-485.01882801 1085.70483733 -445.40328403 1067.32421628 -415 1041 C-414.18402344 1040.29488281 -413.36804687 1039.58976562 -412.52734375 1038.86328125 C-401.14266124 1028.81372791 -390.92637684 1018.28546415 -382 1006 C-381.52594727 1005.34854004 -381.05189453 1004.69708008 -380.56347656 1004.02587891 C-366.49989533 984.42423412 -355.93101565 962.74008144 -348 940 C-347.53303711 938.6689624 -347.53303711 938.6689624 -347.05664062 937.31103516 C-318.64038981 854.59187434 -326.62870282 755.98877221 -326 673 C-531.59 673 -737.18 673 -949 673 C-949 555.19 -949 437.38 -949 316 C-881.29714844 315.94392578 -881.29714844 315.94392578 -812.2265625 315.88671875 C-785.32511003 315.85824834 -758.42366079 315.82957367 -731.52221322 315.79718363 C-715.7340749 315.77818946 -699.94593643 315.75933275 -684.15779744 315.7409003 C-682.24846318 315.73867081 -680.33912893 315.73643699 -678.42979468 315.73419879 C-648.07409085 315.69865034 -617.71838818 315.67260594 -587.36267108 315.65161031 C-556.12416982 315.62995311 -524.88569297 315.59850611 -493.64721414 315.55500887 C-489.21943373 315.54884801 -484.79165318 315.5427973 -480.36387253 315.53681374 C-479.49255319 315.53563285 -478.62123385 315.53445197 -477.7235109 315.53323531 C-463.78430834 315.51462554 -449.84511767 315.50611925 -435.90590421 315.50153876 C-421.83982989 315.49669559 -407.77380018 315.48085785 -393.7077498 315.45433434 C-386.10777886 315.44029534 -378.50787503 315.43078346 -370.90789032 315.43499184 C-310.29008719 315.46336281 -249.90351816 313.80648401 -191.77441406 294.89746094 C-189.46747297 294.15121706 -187.15621896 293.42978447 -184.8359375 292.7265625 C-147.50074076 281.05413957 -113.14233968 260.028894 -85 233 C-84.23792236 232.27079346 -84.23792236 232.27079346 -83.46044922 231.52685547 C-76.4291057 224.75993101 -69.92970981 217.77129448 -64 210 C-63.51418457 209.36352539 -63.02836914 208.72705078 -62.52783203 208.07128906 C-38.02392536 175.71617684 -22.5641906 139.04517448 -12.71386719 99.83544922 C-12.09994224 97.39696622 -11.46491779 94.96564444 -10.8203125 92.53515625 C-7.47263175 79.56505135 -5.74308876 66.26463454 -4 53 C-3.74162354 51.04042358 -3.74162354 51.04042358 -3.47802734 49.04125977 C-2.11936903 38.35873019 -1.41110723 27.68918524 -0.875 16.9375 C-0.78826348 15.28057255 -0.70102595 13.62367124 -0.61328125 11.96679688 C-0.40311208 7.97814053 -0.19960433 3.98919841 0 0 Z " fill="#0F5430" transform="translate(1557,123)"/>
<path d="M0 0 C0.33 0.99 0.66 1.98 1 3 C-1.97 5.475 -1.97 5.475 -5 8 C-5.66 7.67 -6.32 7.34 -7 7 C-4.69 4.69 -2.38 2.38 0 0 Z " fill="#125F26" transform="translate(1162,1145)"/>
<path d="M0 0 C0.33 0 0.66 0 1 0 C0.88490339 1.41750563 0.75746342 2.83401169 0.625 4.25 C0.55539062 5.03890625 0.48578125 5.8278125 0.4140625 6.640625 C-0.01507113 9.085877 -0.78600638 10.84836903 -2 13 C-2.16682272 8.07872966 -2.24828052 4.49656104 0 0 Z " fill="#4CA546" transform="translate(1547,207)"/>
</svg>
