<svg id="Слой_1" data-name="Слой 1" xmlns="http://www.w3.org/2000/svg" viewBox="261 318 1432 449"><defs><style>.cls-1{fill:#50ae3d;}.cls-2{fill:#1d1d1b;}.cls-3{fill:#0e5430;}.cls-4{fill:#060606;}</style></defs><path class="cls-1" d="M456.55,757S271,702.17,271,431.78V328.3h371.2V431.78C642.15,692.5,456.55,757,456.55,757"/><path class="cls-2" d="M745.26,535.91V389.61h89.62v10.78A19.92,19.92,0,0,1,815,420.31H781.07V451h44.61v10.4a20.29,20.29,0,0,1-20.3,20.29H781.07v54.22Z"/><path class="cls-2" d="M890.94,455.9H906.5q8.78,0,13.7-4.7t4.91-13.29q0-12.09-8.59-15.56-4.71-2-13.51-2H890.94Zm-35.81,80V389.61h51q19.44,0,28.45,3.49a40.42,40.42,0,0,1,19.84,15.84q7.17,11,7.16,26.71a50.74,50.74,0,0,1-5.72,23.43,36.75,36.75,0,0,1-16.17,16.48v.4a84.45,84.45,0,0,1,5.53,8.8l28.44,51.15H933.7l-26-49.32H890.94v49.32Z"/><polygon class="cls-2" points="989.77 535.91 989.77 389.61 1081.45 389.61 1081.45 420.31 1025.58 420.31 1025.58 446.9 1070.19 446.9 1070.19 477.59 1025.58 477.59 1025.58 505.22 1084.31 505.22 1084.31 535.91 989.77 535.91"/><polygon class="cls-2" points="1107.22 535.91 1107.22 389.61 1198.89 389.61 1198.89 420.31 1143.03 420.31 1143.03 446.9 1187.64 446.9 1187.64 477.59 1143.03 477.59 1143.03 505.22 1201.76 505.22 1201.76 535.91 1107.22 535.91"/><path class="cls-2" d="M1260.48,505.22h14.73q18.81,0,29.36-11t10.54-31.72q0-20.46-10.63-31.31t-29.27-10.84h-14.73Zm-35.81,30.69V389.61h52q34.77,0,55.14,19.33t20.37,53.52q0,34.37-20.37,53.91t-55.14,19.54Z"/><path class="cls-2" d="M1404.51,461.84q0,18.84,11.15,31.31T1444,505.63q17.18,0,28.33-12.48t11.15-31.31q0-18-11.15-30t-28.33-12q-17.19,0-28.36,12t-11.15,30m-37,0q0-31.93,21.49-53.31t55-21.38q33.54,0,55,21.38t21.48,53.31q0,32.73-21.48,54.64t-55,21.88q-33.58,0-55-21.88t-21.49-54.64"/><path class="cls-2" d="M1537.52,535.91l12.07-146.3h38.88l21.28,61.79,7.36,24.16h.42q4.1-14.74,7.36-24.16l21.28-61.79h38.88l11.87,146.3h-35.8L1656.61,470c-.28-3.27-.41-6.95-.41-11s.06-7.37.2-9.83l.21-3.67h-.41q-4.92,15.34-8.18,24.54l-15.35,42.36H1602L1586.63,470l-8.19-24.54H1578a185.6,185.6,0,0,1,0,24.54l-4.49,65.89Z"/><path class="cls-3" d="M563.69,432.6H414.21v85.92H563.72v25.71c0,43.5-12.28,78.6-78.42,78.76H414.21V736.43C438.76,751.7,456.54,757,456.54,757s185.6-64.45,185.6-325.17v-78c0,43.52-19.23,78-78.45,78.8"/><path class="cls-4" d="M746.25,683.17V580.55H784q15.78,0,25.33,7t9.54,19.88A26.5,26.5,0,0,1,815.72,620a23.08,23.08,0,0,1-8.76,9.26v.28a20.32,20.32,0,0,1,12.13,9A26.83,26.83,0,0,1,823,652.6q0,15.64-11,23.11t-28,7.46Zm25.11-62.86h12.93q4.44,0,6.74-2.73a10.14,10.14,0,0,0,2.3-6.75,8.67,8.67,0,0,0-2.37-6.31q-2.37-2.44-7.11-2.44H771.36Zm0,41.33h15.08c3.44,0,6.12-1,8-3.08a10.86,10.86,0,0,0,2.86-7.68,10.65,10.65,0,0,0-2.72-7.53q-2.73-3-8-3H771.36Z"/><path class="cls-4" d="M839.11,683.17V580.55h35.74q13.64,0,19.95,2.44a28.51,28.51,0,0,1,13.92,11.12q5,7.68,5,18.74a35.63,35.63,0,0,1-4,16.43,25.77,25.77,0,0,1-11.34,11.55v.29a57.4,57.4,0,0,1,3.87,6.17l20,35.88h-28L876,648.58H864.22v34.59Zm25.11-56.12h10.91q6.18,0,9.62-3.3t3.45-9.33q0-8.48-6-10.91-3.3-1.43-9.48-1.43h-8.47Z"/><path class="cls-4" d="M928,631.21q0-22.38,15.07-37.38t38.61-15q23.54,0,38.61,15t15.07,37.38q0,23-15.07,38.32T981.63,684.9q-23.55,0-38.61-15.37T928,631.21Zm26,0q0,13.21,7.82,22a26.94,26.94,0,0,0,39.76,0q7.83-8.74,7.82-22,0-12.62-7.82-21a27.72,27.72,0,0,0-39.76,0Q953.92,618.59,953.93,631.21Z"/><path class="cls-4" d="M1051.25,683.17V580.55h25.11v39.61h10.33l21.25-39.61h27l-27.7,49.08v.29l29.28,53.25h-28.13l-21.68-41.62h-10.33v41.62Z"/><path class="cls-4" d="M1148.13,683.17V580.55h64.3v21.53h-39.19v18.66h31.29v21.52h-31.29v19.38h41.2v21.53Z"/><path class="cls-4" d="M1230.51,683.17V580.55h35.74q13.63,0,20,2.44a28.51,28.51,0,0,1,13.92,11.12q5,7.68,5,18.74a35.63,35.63,0,0,1-4,16.43,25.77,25.77,0,0,1-11.34,11.55v.29a55.83,55.83,0,0,1,3.87,6.17l19.95,35.88h-28l-18.23-34.59h-11.77v34.59Zm25.12-56.12h10.9q6.18,0,9.62-3.3t3.45-9.33q0-8.48-6-10.91-3.3-1.43-9.48-1.43h-8.46Z"/></svg>